#!OML:ASF I:\Actors\actors\Patient Classification 2\Patient 1\Session 1\actor1.ASF
:FULLY-SPECIFIED
:DEGREES
546
root -0.438966 18.7682 5.67006 3.59921 -6.15947 -3.84197
lowerback 10.9689 -1.34328 -2.39925
upperback 2.91567 -1.97925 1.95431
thorax -2.94991 -0.978886 3.6491
lowerneck -10.4008 3.99354 5.70848
upperneck 33.9014 3.37966 2.6144
head 13.183 2.4803 0.487319
rclavicle -2.13694e-014 -9.74045e-015
rhumerus -48.7046 0.407204 -79.8269
rradius 56.3648
rwrist 5.90805
rhand -4.95252 -43.2215
rfingers 7.12502
rthumb 20.839 -72.1224
lclavicle -2.13694e-014 -9.74045e-015
lhumerus 5.14281 -18.3588 51.2642
lradius 67.548
lwrist -9.2272
lhand -6.39707 -26.7332
lfingers 7.12502
lthumb 19.4506 2.31393
rfemur 0 0 0
rtibia 0
rfoot 0 0
rtoes 0
lfemur -7.35025 -2.83711 -11.4546
ltibia 23.6943
lfoot -23.8914 14.0034
ltoes -54.3516
547
root -0.429071 18.7715 5.66144 3.70737 -6.1431 -3.80416
lowerback 11.0326 -1.38207 -2.62037
upperback 3.09724 -2.05838 1.90128
thorax -2.78303 -1.02365 3.7269
lowerneck -10.6695 3.92729 5.67045
upperneck 33.7873 3.27471 2.60862
head 13.1886 2.4264 0.480043
rclavicle -1.05356e-014 2.42517e-014
rhumerus -48.3858 0.376794 -79.879
rradius 55.8907
rwrist 6.09267
rhand -4.94838 -43.1627
rfingers 7.12502
rthumb 20.843 -72.0631
lclavicle -1.05356e-014 2.42517e-014
lhumerus 6.32512 -17.6007 53.2354
lradius 62.4314
lwrist -11.2037
lhand -5.78177 -26.693
lfingers 7.12502
lthumb 20.0421 2.29334
rfemur 0 0 0
rtibia 0
rfoot 0 0
rtoes 0
lfemur -7.54041 -2.92347 -11.5275
ltibia 23.746
lfoot -23.8899 14.0817
ltoes -54.3563
548
root -0.419728 18.7751 5.65161 3.82533 -6.05583 -3.8648
lowerback 11.1295 -1.45925 -2.76156
upperback 3.26961 -2.17736 1.92606
thorax -2.63993 -1.08848 3.84729
lowerneck -10.9809 3.90172 5.5656
upperneck 33.6588 3.28599 2.48232
head 13.1982 2.39996 0.454483
rclavicle 1.32192e-014 -2.10712e-014
rhumerus -47.938 0.433953 -79.818
rradius 55.2887
rwrist 6.33056
rhand -4.79312 -43.1261
rfingers 7.12502
rthumb 20.9922 -72.0101
lclavicle 1.32192e-014 -2.10712e-014
lhumerus 7.54517 -15.933 55.5817
lradius 57.1416
lwrist -13.8184
lhand -4.04525 -26.018
lfingers 7.12502
lthumb 21.7105 2.78462
rfemur 0 0 0
rtibia 0
rfoot 0 0
rtoes 0
lfemur -7.76599 -2.99405 -11.475
ltibia 23.81
lfoot -23.8596 14.0965
ltoes -54.325
549
root -0.412217 18.7779 5.64262 3.8872 -5.90801 -3.97549
lowerback 11.3775 -1.58463 -2.799
upperback 3.40326 -2.35219 1.93314
thorax -2.61934 -1.17804 3.90471
lowerneck -11.1906 3.92685 5.48563
upperneck 33.4135 3.37054 2.37252
head 13.1375 2.4091 0.437017
rclavicle 1.65985e-014 -1.70955e-014
rhumerus -47.4756 0.481953 -79.7373
rradius 54.6462
rwrist 6.59343
rhand -4.5063 -43.1084
rfingers 7.12502
rthumb 21.2677 -71.9615
lclavicle 1.65985e-014 -1.70955e-014
lhumerus 8.49583 -13.1455 58.3832
lradius 52.3313
lwrist -17.3635
lhand -3.665 -26.8674
lfingers 7.12502
lthumb 22.0756 1.89251
rfemur 0 0 0
rtibia 0
rfoot 0 0
rtoes 0
lfemur -7.94234 -2.8863 -11.3399
ltibia 23.8665
lfoot -23.706 13.9246
ltoes -54.3317
550
root -0.407528 18.7794 5.63565 3.91538 -5.78745 -4.0288
lowerback 11.6731 -1.72078 -2.81622
upperback 3.51591 -2.54304 1.8441
thorax -2.6502 -1.27363 3.85549
lowerneck -11.3016 3.95972 5.45781
upperneck 33.0253 3.42737 2.36938
head 12.995 2.4243 0.443034
rclavicle -2.3556e-014 1.03368e-014
rhumerus -47.1198 0.378836 -79.7351
rradius 54.1768
rwrist 6.83724
rhand -4.19406 -42.9793
rfingers 7.12502
rthumb 21.5676 -71.7983
lclavicle -2.3556e-014 1.03368e-014
lhumerus 9.26241 -9.85756 61.1469
lradius 48.971
lwrist -20.272
lhand -2.57539 -27.5546
lfingers 7.12502
lthumb 23.1214 1.07802
rfemur 0 0 0
rtibia 0
rfoot 0 0
rtoes 0
lfemur -8.05095 -2.91356 -11.2732
ltibia 23.9086
lfoot -23.6521 13.8323
ltoes -54.2852
